<?xml version="1.0" encoding="UTF-8" standalone="no" ?>
<!DOCTYPE svg PUBLIC "-//W3C//DTD SVG 1.1//EN" "http://www.w3.org/Graphics/SVG/1.1/DTD/svg11.dtd">
<svg xmlns="http://www.w3.org/2000/svg" xmlns:xlink="http://www.w3.org/1999/xlink" version="1.1" width="1080" height="1080" viewBox="0 0 1080 1080" xml:space="preserve">
<desc>Created with Fabric.js 5.2.4</desc>
<defs>
</defs>
<rect x="0" y="0" width="100%" height="100%" fill="transparent"></rect>
<g transform="matrix(1 0 0 1 540 540)" id="dd65c664-d714-465b-b2ce-11d6b8778351"  >
</g>
<g transform="matrix(1 0 0 1 540 540)" id="735bc83a-50ef-4aa8-8aaf-b8eb2301bbca"  >
<rect style="stroke: none; stroke-width: 1; stroke-dasharray: none; stroke-linecap: butt; stroke-dashoffset: 0; stroke-linejoin: miter; stroke-miterlimit: 4; fill: rgb(255,255,255); fill-rule: nonzero; opacity: 1; visibility: hidden;" vector-effect="non-scaling-stroke"  x="-540" y="-540" rx="0" ry="0" width="1080" height="1080" />
</g>
<g transform="matrix(1 0 0 1 540 540)"  >
<g style="" vector-effect="non-scaling-stroke"   >
		<g transform="matrix(1 0 0 1 0 0)"  >
<path style="stroke: none; stroke-width: 1; stroke-dasharray: none; stroke-linecap: butt; stroke-dashoffset: 0; stroke-linejoin: miter; stroke-miterlimit: 4; fill: rgb(0,0,0); fill-rule: nonzero; opacity: 1;" vector-effect="non-scaling-stroke"  transform=" translate(-50, -50)" d="M 50 82.3 C 57.6 82.3 63.8 76.1 63.8 68.5 C 63.8 64.1 61.8 60.1 58.3 57.5 L 58.3 26 C 58.3 23.8 57.4 21.7 55.9 20.1 C 54.3 18.5 52.199999999999996 17.700000000000003 50 17.700000000000003 C 45.4 17.700000000000003 41.7 21.400000000000002 41.7 26.000000000000004 L 41.7 57.5 C 38.300000000000004 60.1 36.2 64.1 36.2 68.5 C 36.2 76.1 42.4 82.3 50 82.3 z M 44.8 60.3 L 45.699999999999996 59.699999999999996 L 45.699999999999996 48.2 L 50 48.2 L 50 44.2 L 45.7 44.2 L 45.7 42.400000000000006 L 50 42.400000000000006 L 50 38.400000000000006 L 45.7 38.400000000000006 L 45.7 36.60000000000001 L 50 36.60000000000001 L 50 32.60000000000001 L 45.7 32.60000000000001 L 45.7 30.800000000000008 L 50 30.800000000000008 L 50 26.800000000000008 L 45.7 26.800000000000008 L 45.7 26 C 45.7 23.6 47.6 21.7 50 21.7 C 51.1 21.7 52.2 22.099999999999998 53 23 C 53.8 23.8 54.3 24.9 54.3 26 L 54.3 59.6 L 55.199999999999996 60.2 C 57.99999999999999 62 59.699999999999996 65.10000000000001 59.699999999999996 68.4 C 59.699999999999996 73.80000000000001 55.3 78.2 49.89999999999999 78.2 C 44.499999999999986 78.2 40.099999999999994 73.8 40.099999999999994 68.4 C 40.2 65.1 41.9 62.1 44.8 60.3 z" stroke-linecap="round" />
</g>
		<g transform="matrix(1 0 0 1 0 14.6)"  >
<path style="stroke: none; stroke-width: 1; stroke-dasharray: none; stroke-linecap: butt; stroke-dashoffset: 0; stroke-linejoin: miter; stroke-miterlimit: 4; fill: rgb(0,0,0); fill-rule: nonzero; opacity: 1;" vector-effect="non-scaling-stroke"  transform=" translate(-50, -64.6)" d="M 50 76.6 C 54.5 76.6 58.1 73 58.1 68.5 C 58.1 64.7 55.5 61.6 52 60.7 L 52 52.6 L 48 52.6 L 48 60.7 C 44.5 61.6 41.9 64.8 41.9 68.5 C 41.9 73 45.5 76.6 50 76.6 z M 50 64.4 C 52.3 64.4 54.1 66.2 54.1 68.5 C 54.1 70.8 52.300000000000004 72.6 50 72.6 C 47.699999999999996 72.6 45.9 70.8 45.9 68.5 C 45.9 66.2 47.7 64.4 50 64.4 z" stroke-linecap="round" />
</g>
</g>
</g>
<g transform="matrix(-0.28 0 0 -0.43 560.01 519.04)"  >
<path style="stroke: rgb(206,0,0); stroke-width: 0; stroke-dasharray: none; stroke-linecap: butt; stroke-dashoffset: 0; stroke-linejoin: miter; stroke-miterlimit: 4; fill: rgb(0,0,0); fill-rule: nonzero; opacity: 1;" vector-effect="non-scaling-stroke"  transform=" translate(-50.5, -50)" d="M 82.614 52.531 C 85.44500000000001 49.751 85.44500000000001 45.164 82.614 42.334 L 55.582 15.3 C 52.799 12.519 48.212 12.519 45.381 15.3 L 18.348 42.334 C 15.566999999999998 45.164 15.566999999999998 49.751000000000005 18.348 52.531000000000006 C 22.250999999999998 56.19200000000001 33.036 48.18900000000001 42.65 44.431000000000004 L 42.65 82.00300000000001 C 42.65 84.63900000000001 44.796 86.78400000000002 47.431 86.78400000000002 L 54.655 86.78400000000002 C 57.291000000000004 86.78400000000002 59.436 84.63800000000002 59.436 82.00300000000001 L 59.436 44.871 C 68.561 48.775 78.32 55.9 82.614 52.531 z" stroke-linecap="round" />
</g>
</svg>